<mxfile host="Electron" modified="2024-07-04T14:47:44.018Z" agent="Mozilla/5.0 (X11; Linux x86_64) AppleWebKit/537.36 (KHTML, like Gecko) draw.io/24.5.3 Chrome/124.0.6367.207 Electron/30.0.6 Safari/537.36" etag="sGa-6JGg5XEBQradJfSa" version="24.5.3" type="device">
  <diagram name="Page-1" id="9V6Q-Z4zB3Sj8kn63uOw">
    <mxGraphModel dx="4764" dy="1938" grid="1" gridSize="10" guides="1" tooltips="1" connect="1" arrows="1" fold="1" page="1" pageScale="1" pageWidth="850" pageHeight="1100" math="0" shadow="0">
      <root>
        <mxCell id="0" />
        <mxCell id="1" parent="0" />
        <mxCell id="L1R1iuNIGhqfOI-RQ1aq-71" style="edgeStyle=orthogonalEdgeStyle;rounded=0;orthogonalLoop=1;jettySize=auto;html=1;fillColor=#fff2cc;strokeColor=#d6b656;" parent="1" source="_nVs0SrbICBYPmGhIl3n-5" target="L1R1iuNIGhqfOI-RQ1aq-56" edge="1">
          <mxGeometry relative="1" as="geometry" />
        </mxCell>
        <mxCell id="_nVs0SrbICBYPmGhIl3n-5" value="AuthorizationClass" style="swimlane;fontStyle=1;align=center;verticalAlign=top;childLayout=stackLayout;horizontal=1;startSize=26;horizontalStack=0;resizeParent=1;resizeParentMax=0;resizeLast=0;collapsible=1;marginBottom=0;whiteSpace=wrap;html=1;fillColor=#fff2cc;strokeColor=#d6b656;" parent="1" vertex="1">
          <mxGeometry x="-470" y="628" width="220" height="78" as="geometry" />
        </mxCell>
        <mxCell id="_nVs0SrbICBYPmGhIl3n-34" value="+ userGroup: UserGroupEnum&amp;nbsp;" style="text;strokeColor=#d6b656;fillColor=#fff2cc;align=left;verticalAlign=top;spacingLeft=4;spacingRight=4;overflow=hidden;rotatable=0;points=[[0,0.5],[1,0.5]];portConstraint=eastwest;whiteSpace=wrap;html=1;" parent="_nVs0SrbICBYPmGhIl3n-5" vertex="1">
          <mxGeometry y="26" width="220" height="26" as="geometry" />
        </mxCell>
        <mxCell id="_nVs0SrbICBYPmGhIl3n-8" value="+ AuthorizeUser(Token): status" style="text;strokeColor=#d6b656;fillColor=#fff2cc;align=left;verticalAlign=top;spacingLeft=4;spacingRight=4;overflow=hidden;rotatable=0;points=[[0,0.5],[1,0.5]];portConstraint=eastwest;whiteSpace=wrap;html=1;" parent="_nVs0SrbICBYPmGhIl3n-5" vertex="1">
          <mxGeometry y="52" width="220" height="26" as="geometry" />
        </mxCell>
        <mxCell id="_nVs0SrbICBYPmGhIl3n-140" style="edgeStyle=orthogonalEdgeStyle;rounded=0;orthogonalLoop=1;jettySize=auto;html=1;entryX=0.5;entryY=0;entryDx=0;entryDy=0;endArrow=none;endFill=0;fillColor=#d5e8d4;strokeColor=#82b366;" parent="1" source="_nVs0SrbICBYPmGhIl3n-14" target="_nVs0SrbICBYPmGhIl3n-61" edge="1">
          <mxGeometry relative="1" as="geometry" />
        </mxCell>
        <mxCell id="_nVs0SrbICBYPmGhIl3n-152" value="- Context" style="edgeLabel;html=1;align=center;verticalAlign=middle;resizable=0;points=[];fontSize=14;" parent="_nVs0SrbICBYPmGhIl3n-140" vertex="1" connectable="0">
          <mxGeometry x="-0.8736" y="3" relative="1" as="geometry">
            <mxPoint as="offset" />
          </mxGeometry>
        </mxCell>
        <mxCell id="_nVs0SrbICBYPmGhIl3n-141" style="edgeStyle=orthogonalEdgeStyle;rounded=0;orthogonalLoop=1;jettySize=auto;html=1;entryX=0.5;entryY=0;entryDx=0;entryDy=0;endArrow=none;endFill=0;fillColor=#fff2cc;strokeColor=#d6b656;" parent="1" source="_nVs0SrbICBYPmGhIl3n-14" target="_nVs0SrbICBYPmGhIl3n-36" edge="1">
          <mxGeometry relative="1" as="geometry" />
        </mxCell>
        <mxCell id="_nVs0SrbICBYPmGhIl3n-216" value="- Auth" style="edgeLabel;html=1;align=center;verticalAlign=middle;resizable=0;points=[];fontSize=14;" parent="_nVs0SrbICBYPmGhIl3n-141" vertex="1" connectable="0">
          <mxGeometry x="-0.8885" y="-3" relative="1" as="geometry">
            <mxPoint as="offset" />
          </mxGeometry>
        </mxCell>
        <mxCell id="L1R1iuNIGhqfOI-RQ1aq-10" style="edgeStyle=orthogonalEdgeStyle;rounded=0;orthogonalLoop=1;jettySize=auto;html=1;exitX=0.25;exitY=1;exitDx=0;exitDy=0;entryX=1;entryY=0.5;entryDx=0;entryDy=0;endArrow=block;endFill=0;fillColor=#e1d5e7;strokeColor=#9673a6;" parent="1" source="_nVs0SrbICBYPmGhIl3n-14" target="L1R1iuNIGhqfOI-RQ1aq-9" edge="1">
          <mxGeometry relative="1" as="geometry" />
        </mxCell>
        <mxCell id="L1R1iuNIGhqfOI-RQ1aq-17" style="edgeStyle=orthogonalEdgeStyle;rounded=0;orthogonalLoop=1;jettySize=auto;html=1;exitX=0.75;exitY=1;exitDx=0;exitDy=0;entryX=0.5;entryY=0;entryDx=0;entryDy=0;endArrow=block;endFill=0;fillColor=#e1d5e7;strokeColor=#9673a6;" parent="1" source="_nVs0SrbICBYPmGhIl3n-14" target="L1R1iuNIGhqfOI-RQ1aq-12" edge="1">
          <mxGeometry relative="1" as="geometry" />
        </mxCell>
        <mxCell id="L1R1iuNIGhqfOI-RQ1aq-53" style="edgeStyle=orthogonalEdgeStyle;rounded=0;orthogonalLoop=1;jettySize=auto;html=1;entryX=0.5;entryY=1;entryDx=0;entryDy=0;endArrow=none;endFill=0;fillColor=#f8cecc;strokeColor=#b85450;" parent="1" source="_nVs0SrbICBYPmGhIl3n-14" target="L1R1iuNIGhqfOI-RQ1aq-42" edge="1">
          <mxGeometry relative="1" as="geometry" />
        </mxCell>
        <mxCell id="LGvxOL_TvWLj-VS1taTM-1" value="Playback" style="edgeLabel;html=1;align=center;verticalAlign=middle;resizable=0;points=[];" parent="L1R1iuNIGhqfOI-RQ1aq-53" vertex="1" connectable="0">
          <mxGeometry x="-0.5862" relative="1" as="geometry">
            <mxPoint as="offset" />
          </mxGeometry>
        </mxCell>
        <mxCell id="_nVs0SrbICBYPmGhIl3n-14" value="Controller" style="swimlane;fontStyle=1;align=center;verticalAlign=top;childLayout=stackLayout;horizontal=1;startSize=26;horizontalStack=0;resizeParent=1;resizeParentMax=0;resizeLast=0;collapsible=1;marginBottom=0;whiteSpace=wrap;html=1;fillColor=#e1d5e7;strokeColor=#9673a6;" parent="1" vertex="1">
          <mxGeometry x="-1437" y="40" width="325" height="130" as="geometry" />
        </mxCell>
        <mxCell id="_nVs0SrbICBYPmGhIl3n-17" value="+ retrieveDataFromDB(Object): status" style="text;strokeColor=#9673a6;fillColor=#e1d5e7;align=left;verticalAlign=top;spacingLeft=4;spacingRight=4;overflow=hidden;rotatable=0;points=[[0,0.5],[1,0.5]];portConstraint=eastwest;whiteSpace=wrap;html=1;" parent="_nVs0SrbICBYPmGhIl3n-14" vertex="1">
          <mxGeometry y="26" width="325" height="26" as="geometry" />
        </mxCell>
        <mxCell id="_nVs0SrbICBYPmGhIl3n-218" value="+ setContext(Data): status" style="text;strokeColor=#9673a6;fillColor=#e1d5e7;align=left;verticalAlign=top;spacingLeft=4;spacingRight=4;overflow=hidden;rotatable=0;points=[[0,0.5],[1,0.5]];portConstraint=eastwest;whiteSpace=wrap;html=1;" parent="_nVs0SrbICBYPmGhIl3n-14" vertex="1">
          <mxGeometry y="52" width="325" height="26" as="geometry" />
        </mxCell>
        <mxCell id="L1R1iuNIGhqfOI-RQ1aq-1" value="+ handleSignal(SignalsEnum): status" style="text;strokeColor=#9673a6;fillColor=#e1d5e7;align=left;verticalAlign=top;spacingLeft=4;spacingRight=4;overflow=hidden;rotatable=0;points=[[0,0.5],[1,0.5]];portConstraint=eastwest;whiteSpace=wrap;html=1;" parent="_nVs0SrbICBYPmGhIl3n-14" vertex="1">
          <mxGeometry y="78" width="325" height="26" as="geometry" />
        </mxCell>
        <mxCell id="_nVs0SrbICBYPmGhIl3n-217" value="+ authUser(unsigned): status" style="text;strokeColor=#9673a6;fillColor=#e1d5e7;align=left;verticalAlign=top;spacingLeft=4;spacingRight=4;overflow=hidden;rotatable=0;points=[[0,0.5],[1,0.5]];portConstraint=eastwest;whiteSpace=wrap;html=1;" parent="_nVs0SrbICBYPmGhIl3n-14" vertex="1">
          <mxGeometry y="104" width="325" height="26" as="geometry" />
        </mxCell>
        <mxCell id="_nVs0SrbICBYPmGhIl3n-29" style="edgeStyle=orthogonalEdgeStyle;rounded=0;orthogonalLoop=1;jettySize=auto;html=1;exitX=0;exitY=0.5;exitDx=0;exitDy=0;entryX=0.5;entryY=0;entryDx=0;entryDy=0;endArrow=block;endFill=0;fillColor=#fff2cc;strokeColor=#d6b656;" parent="1" source="_nVs0SrbICBYPmGhIl3n-23" target="_nVs0SrbICBYPmGhIl3n-24" edge="1">
          <mxGeometry relative="1" as="geometry" />
        </mxCell>
        <mxCell id="L1R1iuNIGhqfOI-RQ1aq-69" style="edgeStyle=orthogonalEdgeStyle;rounded=0;orthogonalLoop=1;jettySize=auto;html=1;fillColor=#fff2cc;strokeColor=#d6b656;" parent="1" source="_nVs0SrbICBYPmGhIl3n-19" target="L1R1iuNIGhqfOI-RQ1aq-64" edge="1">
          <mxGeometry relative="1" as="geometry" />
        </mxCell>
        <mxCell id="_nVs0SrbICBYPmGhIl3n-19" value="AuthenticationClass" style="swimlane;fontStyle=1;align=center;verticalAlign=top;childLayout=stackLayout;horizontal=1;startSize=26;horizontalStack=0;resizeParent=1;resizeParentMax=0;resizeLast=0;collapsible=1;marginBottom=0;whiteSpace=wrap;html=1;fillColor=#fff2cc;strokeColor=#d6b656;" parent="1" vertex="1">
          <mxGeometry x="-130" y="654" width="230" height="52" as="geometry" />
        </mxCell>
        <mxCell id="_nVs0SrbICBYPmGhIl3n-23" value="+ AuthenticateUser(Credentials): token" style="text;strokeColor=#d6b656;fillColor=#fff2cc;align=left;verticalAlign=top;spacingLeft=4;spacingRight=4;overflow=hidden;rotatable=0;points=[[0,0.5],[1,0.5]];portConstraint=eastwest;whiteSpace=wrap;html=1;" parent="_nVs0SrbICBYPmGhIl3n-19" vertex="1">
          <mxGeometry y="26" width="230" height="26" as="geometry" />
        </mxCell>
        <mxCell id="_nVs0SrbICBYPmGhIl3n-24" value="AuthBase" style="swimlane;fontStyle=1;align=center;verticalAlign=top;childLayout=stackLayout;horizontal=1;startSize=26;horizontalStack=0;resizeParent=1;resizeParentMax=0;resizeLast=0;collapsible=1;marginBottom=0;whiteSpace=wrap;html=1;fillColor=#fff2cc;strokeColor=#d6b656;" parent="1" vertex="1">
          <mxGeometry x="-340" y="780" width="310" height="130" as="geometry" />
        </mxCell>
        <mxCell id="_nVs0SrbICBYPmGhIl3n-25" value="+ token: Token" style="text;strokeColor=#d6b656;fillColor=#fff2cc;align=left;verticalAlign=top;spacingLeft=4;spacingRight=4;overflow=hidden;rotatable=0;points=[[0,0.5],[1,0.5]];portConstraint=eastwest;whiteSpace=wrap;html=1;" parent="_nVs0SrbICBYPmGhIl3n-24" vertex="1">
          <mxGeometry y="26" width="310" height="26" as="geometry" />
        </mxCell>
        <mxCell id="_nVs0SrbICBYPmGhIl3n-30" value="+ createUser(Credentials): status" style="text;strokeColor=#d6b656;fillColor=#fff2cc;align=left;verticalAlign=top;spacingLeft=4;spacingRight=4;overflow=hidden;rotatable=0;points=[[0,0.5],[1,0.5]];portConstraint=eastwest;whiteSpace=wrap;html=1;" parent="_nVs0SrbICBYPmGhIl3n-24" vertex="1">
          <mxGeometry y="52" width="310" height="26" as="geometry" />
        </mxCell>
        <mxCell id="_nVs0SrbICBYPmGhIl3n-35" value="- createToken(): Token" style="text;strokeColor=#d6b656;fillColor=#fff2cc;align=left;verticalAlign=top;spacingLeft=4;spacingRight=4;overflow=hidden;rotatable=0;points=[[0,0.5],[1,0.5]];portConstraint=eastwest;whiteSpace=wrap;html=1;" parent="_nVs0SrbICBYPmGhIl3n-24" vertex="1">
          <mxGeometry y="78" width="310" height="26" as="geometry" />
        </mxCell>
        <mxCell id="_nVs0SrbICBYPmGhIl3n-31" value="- createUserRecord(): status" style="text;strokeColor=#d6b656;fillColor=#fff2cc;align=left;verticalAlign=top;spacingLeft=4;spacingRight=4;overflow=hidden;rotatable=0;points=[[0,0.5],[1,0.5]];portConstraint=eastwest;whiteSpace=wrap;html=1;" parent="_nVs0SrbICBYPmGhIl3n-24" vertex="1">
          <mxGeometry y="104" width="310" height="26" as="geometry" />
        </mxCell>
        <mxCell id="_nVs0SrbICBYPmGhIl3n-28" style="edgeStyle=orthogonalEdgeStyle;rounded=0;orthogonalLoop=1;jettySize=auto;html=1;exitX=1;exitY=0.5;exitDx=0;exitDy=0;entryX=0.5;entryY=0;entryDx=0;entryDy=0;endArrow=block;endFill=0;fillColor=#fff2cc;strokeColor=#d6b656;" parent="1" source="_nVs0SrbICBYPmGhIl3n-8" target="_nVs0SrbICBYPmGhIl3n-24" edge="1">
          <mxGeometry relative="1" as="geometry" />
        </mxCell>
        <mxCell id="L1R1iuNIGhqfOI-RQ1aq-68" style="edgeStyle=orthogonalEdgeStyle;rounded=0;orthogonalLoop=1;jettySize=auto;html=1;entryX=0.5;entryY=0;entryDx=0;entryDy=0;endArrow=block;endFill=0;fillColor=#fff2cc;strokeColor=#d6b656;" parent="1" source="_nVs0SrbICBYPmGhIl3n-36" target="L1R1iuNIGhqfOI-RQ1aq-64" edge="1">
          <mxGeometry relative="1" as="geometry" />
        </mxCell>
        <mxCell id="L1R1iuNIGhqfOI-RQ1aq-70" style="edgeStyle=orthogonalEdgeStyle;rounded=0;orthogonalLoop=1;jettySize=auto;html=1;entryX=0.5;entryY=0;entryDx=0;entryDy=0;fillColor=#fff2cc;strokeColor=#d6b656;endArrow=block;endFill=0;" parent="1" source="_nVs0SrbICBYPmGhIl3n-36" target="L1R1iuNIGhqfOI-RQ1aq-56" edge="1">
          <mxGeometry relative="1" as="geometry" />
        </mxCell>
        <mxCell id="_nVs0SrbICBYPmGhIl3n-36" value="«interface»&lt;br&gt;&lt;b&gt;AuthInterface&lt;/b&gt;" style="html=1;whiteSpace=wrap;fillColor=#fff2cc;strokeColor=#d6b656;" parent="1" vertex="1">
          <mxGeometry x="-240" y="340" width="110" height="50" as="geometry" />
        </mxCell>
        <mxCell id="_nVs0SrbICBYPmGhIl3n-45" value="ContextBase" style="swimlane;fontStyle=1;align=center;verticalAlign=top;childLayout=stackLayout;horizontal=1;startSize=26;horizontalStack=0;resizeParent=1;resizeParentMax=0;resizeLast=0;collapsible=1;marginBottom=0;whiteSpace=wrap;html=1;fillColor=#d5e8d4;strokeColor=#82b366;" parent="1" vertex="1">
          <mxGeometry x="-1370" y="920" width="240" height="130" as="geometry" />
        </mxCell>
        <mxCell id="_nVs0SrbICBYPmGhIl3n-46" value="+ contextID: unsigned" style="text;strokeColor=#82b366;fillColor=#d5e8d4;align=left;verticalAlign=top;spacingLeft=4;spacingRight=4;overflow=hidden;rotatable=0;points=[[0,0.5],[1,0.5]];portConstraint=eastwest;whiteSpace=wrap;html=1;" parent="_nVs0SrbICBYPmGhIl3n-45" vertex="1">
          <mxGeometry y="26" width="240" height="26" as="geometry" />
        </mxCell>
        <mxCell id="_nVs0SrbICBYPmGhIl3n-63" value="+ virtual fillData(Data): status" style="text;strokeColor=#82b366;fillColor=#d5e8d4;align=left;verticalAlign=top;spacingLeft=4;spacingRight=4;overflow=hidden;rotatable=0;points=[[0,0.5],[1,0.5]];portConstraint=eastwest;whiteSpace=wrap;html=1;" parent="_nVs0SrbICBYPmGhIl3n-45" vertex="1">
          <mxGeometry y="52" width="240" height="26" as="geometry" />
        </mxCell>
        <mxCell id="_nVs0SrbICBYPmGhIl3n-64" value="- virtual checkData(Data): status" style="text;strokeColor=#82b366;fillColor=#d5e8d4;align=left;verticalAlign=top;spacingLeft=4;spacingRight=4;overflow=hidden;rotatable=0;points=[[0,0.5],[1,0.5]];portConstraint=eastwest;whiteSpace=wrap;html=1;" parent="_nVs0SrbICBYPmGhIl3n-45" vertex="1">
          <mxGeometry y="78" width="240" height="26" as="geometry" />
        </mxCell>
        <mxCell id="_nVs0SrbICBYPmGhIl3n-48" value="+ virtual setID(unsigned ): status" style="text;strokeColor=#82b366;fillColor=#d5e8d4;align=left;verticalAlign=top;spacingLeft=4;spacingRight=4;overflow=hidden;rotatable=0;points=[[0,0.5],[1,0.5]];portConstraint=eastwest;whiteSpace=wrap;html=1;" parent="_nVs0SrbICBYPmGhIl3n-45" vertex="1">
          <mxGeometry y="104" width="240" height="26" as="geometry" />
        </mxCell>
        <mxCell id="_nVs0SrbICBYPmGhIl3n-132" style="edgeStyle=orthogonalEdgeStyle;rounded=0;orthogonalLoop=1;jettySize=auto;html=1;entryX=0;entryY=0.5;entryDx=0;entryDy=0;endArrow=block;endFill=0;fillColor=#d5e8d4;strokeColor=#82b366;" parent="1" source="_nVs0SrbICBYPmGhIl3n-53" target="_nVs0SrbICBYPmGhIl3n-63" edge="1">
          <mxGeometry relative="1" as="geometry" />
        </mxCell>
        <mxCell id="_nVs0SrbICBYPmGhIl3n-53" value="ItemListBase" style="swimlane;fontStyle=1;align=center;verticalAlign=top;childLayout=stackLayout;horizontal=1;startSize=26;horizontalStack=0;resizeParent=1;resizeParentMax=0;resizeLast=0;collapsible=1;marginBottom=0;whiteSpace=wrap;html=1;fillColor=#d5e8d4;strokeColor=#82b366;" parent="1" vertex="1">
          <mxGeometry x="-1595" y="820" width="160" height="78" as="geometry" />
        </mxCell>
        <mxCell id="_nVs0SrbICBYPmGhIl3n-54" value="+ dataList: list&amp;lt;Data&amp;gt;" style="text;strokeColor=#82b366;fillColor=#d5e8d4;align=left;verticalAlign=top;spacingLeft=4;spacingRight=4;overflow=hidden;rotatable=0;points=[[0,0.5],[1,0.5]];portConstraint=eastwest;whiteSpace=wrap;html=1;" parent="_nVs0SrbICBYPmGhIl3n-53" vertex="1">
          <mxGeometry y="26" width="160" height="26" as="geometry" />
        </mxCell>
        <mxCell id="_nVs0SrbICBYPmGhIl3n-130" value="+ fillList(Data): status" style="text;strokeColor=#82b366;fillColor=#d5e8d4;align=left;verticalAlign=top;spacingLeft=4;spacingRight=4;overflow=hidden;rotatable=0;points=[[0,0.5],[1,0.5]];portConstraint=eastwest;whiteSpace=wrap;html=1;" parent="_nVs0SrbICBYPmGhIl3n-53" vertex="1">
          <mxGeometry y="52" width="160" height="26" as="geometry" />
        </mxCell>
        <mxCell id="L1R1iuNIGhqfOI-RQ1aq-79" style="edgeStyle=orthogonalEdgeStyle;rounded=0;orthogonalLoop=1;jettySize=auto;html=1;entryX=0.5;entryY=0;entryDx=0;entryDy=0;endArrow=block;endFill=0;fillColor=#d5e8d4;strokeColor=#82b366;" parent="1" source="_nVs0SrbICBYPmGhIl3n-61" target="L1R1iuNIGhqfOI-RQ1aq-74" edge="1">
          <mxGeometry relative="1" as="geometry">
            <Array as="points">
              <mxPoint x="-1315" y="440" />
              <mxPoint x="-1700" y="440" />
              <mxPoint x="-1700" y="476" />
            </Array>
          </mxGeometry>
        </mxCell>
        <mxCell id="L1R1iuNIGhqfOI-RQ1aq-84" style="edgeStyle=orthogonalEdgeStyle;rounded=0;orthogonalLoop=1;jettySize=auto;html=1;entryX=0.5;entryY=0;entryDx=0;entryDy=0;endArrow=block;endFill=0;fillColor=#d5e8d4;strokeColor=#82b366;" parent="1" source="_nVs0SrbICBYPmGhIl3n-61" target="L1R1iuNIGhqfOI-RQ1aq-80" edge="1">
          <mxGeometry relative="1" as="geometry">
            <Array as="points">
              <mxPoint x="-1315" y="440" />
              <mxPoint x="-1395" y="440" />
            </Array>
          </mxGeometry>
        </mxCell>
        <mxCell id="L1R1iuNIGhqfOI-RQ1aq-90" style="edgeStyle=orthogonalEdgeStyle;rounded=0;orthogonalLoop=1;jettySize=auto;html=1;entryX=0.5;entryY=0;entryDx=0;entryDy=0;endArrow=block;endFill=0;fillColor=#d5e8d4;strokeColor=#82b366;" parent="1" source="_nVs0SrbICBYPmGhIl3n-61" target="L1R1iuNIGhqfOI-RQ1aq-86" edge="1">
          <mxGeometry relative="1" as="geometry">
            <Array as="points">
              <mxPoint x="-1315" y="440" />
              <mxPoint x="-1025" y="440" />
            </Array>
          </mxGeometry>
        </mxCell>
        <mxCell id="L1R1iuNIGhqfOI-RQ1aq-96" style="edgeStyle=orthogonalEdgeStyle;rounded=0;orthogonalLoop=1;jettySize=auto;html=1;entryX=0.5;entryY=0;entryDx=0;entryDy=0;endArrow=block;endFill=0;fillColor=#d5e8d4;strokeColor=#82b366;" parent="1" source="_nVs0SrbICBYPmGhIl3n-61" target="L1R1iuNIGhqfOI-RQ1aq-92" edge="1">
          <mxGeometry relative="1" as="geometry">
            <Array as="points">
              <mxPoint x="-1315" y="440" />
              <mxPoint x="-675" y="440" />
            </Array>
          </mxGeometry>
        </mxCell>
        <mxCell id="_nVs0SrbICBYPmGhIl3n-61" value="«interface»&lt;br&gt;&lt;b&gt;ContextInterface&lt;/b&gt;" style="html=1;whiteSpace=wrap;fillColor=#d5e8d4;strokeColor=#82b366;" parent="1" vertex="1">
          <mxGeometry x="-1370" y="350" width="110" height="50" as="geometry" />
        </mxCell>
        <mxCell id="_nVs0SrbICBYPmGhIl3n-103" style="edgeStyle=orthogonalEdgeStyle;rounded=0;orthogonalLoop=1;jettySize=auto;html=1;entryX=0.5;entryY=0;entryDx=0;entryDy=0;endArrow=block;endFill=0;fillColor=#d5e8d4;strokeColor=#82b366;" parent="1" source="_nVs0SrbICBYPmGhIl3n-79" target="_nVs0SrbICBYPmGhIl3n-53" edge="1">
          <mxGeometry relative="1" as="geometry" />
        </mxCell>
        <mxCell id="L1R1iuNIGhqfOI-RQ1aq-78" style="edgeStyle=orthogonalEdgeStyle;rounded=0;orthogonalLoop=1;jettySize=auto;html=1;fillColor=#d5e8d4;strokeColor=#82b366;" parent="1" source="_nVs0SrbICBYPmGhIl3n-79" target="L1R1iuNIGhqfOI-RQ1aq-74" edge="1">
          <mxGeometry relative="1" as="geometry" />
        </mxCell>
        <mxCell id="_nVs0SrbICBYPmGhIl3n-79" value="PlaylistContextClass" style="swimlane;fontStyle=1;align=center;verticalAlign=top;childLayout=stackLayout;horizontal=1;startSize=26;horizontalStack=0;resizeParent=1;resizeParentMax=0;resizeLast=0;collapsible=1;marginBottom=0;whiteSpace=wrap;html=1;fillColor=#d5e8d4;strokeColor=#82b366;" parent="1" vertex="1">
          <mxGeometry x="-1595" y="628" width="160" height="34" as="geometry" />
        </mxCell>
        <mxCell id="_nVs0SrbICBYPmGhIl3n-128" style="edgeStyle=orthogonalEdgeStyle;rounded=0;orthogonalLoop=1;jettySize=auto;html=1;entryX=0;entryY=0.5;entryDx=0;entryDy=0;endArrow=block;endFill=0;fillColor=#d5e8d4;strokeColor=#82b366;" parent="1" source="_nVs0SrbICBYPmGhIl3n-84" target="_nVs0SrbICBYPmGhIl3n-120" edge="1">
          <mxGeometry relative="1" as="geometry" />
        </mxCell>
        <mxCell id="L1R1iuNIGhqfOI-RQ1aq-85" style="edgeStyle=orthogonalEdgeStyle;rounded=0;orthogonalLoop=1;jettySize=auto;html=1;endArrow=classic;endFill=1;fillColor=#d5e8d4;strokeColor=#82b366;" parent="1" source="_nVs0SrbICBYPmGhIl3n-84" target="L1R1iuNIGhqfOI-RQ1aq-80" edge="1">
          <mxGeometry relative="1" as="geometry" />
        </mxCell>
        <mxCell id="_nVs0SrbICBYPmGhIl3n-84" value="AuthorContextClass" style="swimlane;fontStyle=1;align=center;verticalAlign=top;childLayout=stackLayout;horizontal=1;startSize=26;horizontalStack=0;resizeParent=1;resizeParentMax=0;resizeLast=0;collapsible=1;marginBottom=0;whiteSpace=wrap;html=1;fillColor=#d5e8d4;strokeColor=#82b366;" parent="1" vertex="1">
          <mxGeometry x="-1380" y="628" width="160" height="34" as="geometry" />
        </mxCell>
        <mxCell id="_nVs0SrbICBYPmGhIl3n-129" style="edgeStyle=orthogonalEdgeStyle;rounded=0;orthogonalLoop=1;jettySize=auto;html=1;exitX=0.5;exitY=1;exitDx=0;exitDy=0;entryX=0.75;entryY=0;entryDx=0;entryDy=0;endArrow=block;endFill=0;fillColor=#d5e8d4;strokeColor=#82b366;" parent="1" source="_nVs0SrbICBYPmGhIl3n-91" target="_nVs0SrbICBYPmGhIl3n-120" edge="1">
          <mxGeometry relative="1" as="geometry" />
        </mxCell>
        <mxCell id="L1R1iuNIGhqfOI-RQ1aq-91" style="edgeStyle=orthogonalEdgeStyle;rounded=0;orthogonalLoop=1;jettySize=auto;html=1;fillColor=#d5e8d4;strokeColor=#82b366;" parent="1" source="_nVs0SrbICBYPmGhIl3n-91" target="L1R1iuNIGhqfOI-RQ1aq-86" edge="1">
          <mxGeometry relative="1" as="geometry" />
        </mxCell>
        <mxCell id="_nVs0SrbICBYPmGhIl3n-91" value="PlaybackContextClass" style="swimlane;fontStyle=1;align=center;verticalAlign=top;childLayout=stackLayout;horizontal=1;startSize=26;horizontalStack=0;resizeParent=1;resizeParentMax=0;resizeLast=0;collapsible=1;marginBottom=0;whiteSpace=wrap;html=1;fillColor=#d5e8d4;strokeColor=#82b366;" parent="1" vertex="1">
          <mxGeometry x="-1205" y="628" width="160" height="34" as="geometry" />
        </mxCell>
        <mxCell id="_nVs0SrbICBYPmGhIl3n-133" style="edgeStyle=orthogonalEdgeStyle;rounded=0;orthogonalLoop=1;jettySize=auto;html=1;entryX=1;entryY=0.5;entryDx=0;entryDy=0;endArrow=block;endFill=0;fillColor=#d5e8d4;strokeColor=#82b366;" parent="1" source="_nVs0SrbICBYPmGhIl3n-106" target="_nVs0SrbICBYPmGhIl3n-45" edge="1">
          <mxGeometry relative="1" as="geometry">
            <Array as="points">
              <mxPoint x="-930" y="900" />
              <mxPoint x="-1070" y="900" />
              <mxPoint x="-1070" y="985" />
            </Array>
          </mxGeometry>
        </mxCell>
        <mxCell id="_nVs0SrbICBYPmGhIl3n-106" value="ItemBase" style="swimlane;fontStyle=1;align=center;verticalAlign=top;childLayout=stackLayout;horizontal=1;startSize=26;horizontalStack=0;resizeParent=1;resizeParentMax=0;resizeLast=0;collapsible=1;marginBottom=0;whiteSpace=wrap;html=1;fillColor=#d5e8d4;strokeColor=#82b366;" parent="1" vertex="1">
          <mxGeometry x="-1010" y="833" width="160" height="52" as="geometry" />
        </mxCell>
        <mxCell id="_nVs0SrbICBYPmGhIl3n-107" value="+ data: Data" style="text;strokeColor=#82b366;fillColor=#d5e8d4;align=left;verticalAlign=top;spacingLeft=4;spacingRight=4;overflow=hidden;rotatable=0;points=[[0,0.5],[1,0.5]];portConstraint=eastwest;whiteSpace=wrap;html=1;" parent="_nVs0SrbICBYPmGhIl3n-106" vertex="1">
          <mxGeometry y="26" width="160" height="26" as="geometry" />
        </mxCell>
        <mxCell id="_nVs0SrbICBYPmGhIl3n-126" style="edgeStyle=orthogonalEdgeStyle;rounded=0;orthogonalLoop=1;jettySize=auto;html=1;entryX=1;entryY=0.5;entryDx=0;entryDy=0;endArrow=block;endFill=0;fillColor=#d5e8d4;strokeColor=#82b366;exitX=0.5;exitY=1;exitDx=0;exitDy=0;" parent="1" source="_nVs0SrbICBYPmGhIl3n-113" target="_nVs0SrbICBYPmGhIl3n-120" edge="1">
          <mxGeometry relative="1" as="geometry" />
        </mxCell>
        <mxCell id="L1R1iuNIGhqfOI-RQ1aq-97" style="edgeStyle=orthogonalEdgeStyle;rounded=0;orthogonalLoop=1;jettySize=auto;html=1;fillColor=#d5e8d4;strokeColor=#82b366;" parent="1" source="_nVs0SrbICBYPmGhIl3n-113" target="L1R1iuNIGhqfOI-RQ1aq-92" edge="1">
          <mxGeometry relative="1" as="geometry" />
        </mxCell>
        <mxCell id="_nVs0SrbICBYPmGhIl3n-113" value="UserLibraryContextClass" style="swimlane;fontStyle=1;align=center;verticalAlign=top;childLayout=stackLayout;horizontal=1;startSize=26;horizontalStack=0;resizeParent=1;resizeParentMax=0;resizeLast=0;collapsible=1;marginBottom=0;whiteSpace=wrap;html=1;fillColor=#d5e8d4;strokeColor=#82b366;" parent="1" vertex="1">
          <mxGeometry x="-1030" y="628" width="200" height="34" as="geometry" />
        </mxCell>
        <mxCell id="_nVs0SrbICBYPmGhIl3n-124" style="edgeStyle=orthogonalEdgeStyle;rounded=0;orthogonalLoop=1;jettySize=auto;html=1;entryX=0;entryY=0.5;entryDx=0;entryDy=0;endArrow=block;endFill=0;fillColor=#d5e8d4;strokeColor=#82b366;" parent="1" source="_nVs0SrbICBYPmGhIl3n-120" target="_nVs0SrbICBYPmGhIl3n-106" edge="1">
          <mxGeometry relative="1" as="geometry">
            <Array as="points">
              <mxPoint x="-1220" y="810" />
              <mxPoint x="-1070" y="810" />
              <mxPoint x="-1070" y="870" />
              <mxPoint x="-1010" y="870" />
            </Array>
          </mxGeometry>
        </mxCell>
        <mxCell id="_nVs0SrbICBYPmGhIl3n-125" style="edgeStyle=orthogonalEdgeStyle;rounded=0;orthogonalLoop=1;jettySize=auto;html=1;entryX=1;entryY=0.5;entryDx=0;entryDy=0;endArrow=block;endFill=0;fillColor=#d5e8d4;strokeColor=#82b366;" parent="1" source="_nVs0SrbICBYPmGhIl3n-120" target="_nVs0SrbICBYPmGhIl3n-54" edge="1">
          <mxGeometry relative="1" as="geometry">
            <Array as="points">
              <mxPoint x="-1220" y="810" />
              <mxPoint x="-1360" y="810" />
              <mxPoint x="-1360" y="859" />
            </Array>
          </mxGeometry>
        </mxCell>
        <mxCell id="_nVs0SrbICBYPmGhIl3n-120" value="ItemCompoundBase" style="swimlane;fontStyle=1;align=center;verticalAlign=top;childLayout=stackLayout;horizontal=1;startSize=26;horizontalStack=0;resizeParent=1;resizeParentMax=0;resizeLast=0;collapsible=1;marginBottom=0;whiteSpace=wrap;html=1;fillColor=#d5e8d4;strokeColor=#82b366;" parent="1" vertex="1">
          <mxGeometry x="-1290" y="746" width="160" height="34" as="geometry" />
        </mxCell>
        <mxCell id="L1R1iuNIGhqfOI-RQ1aq-23" style="edgeStyle=orthogonalEdgeStyle;rounded=0;orthogonalLoop=1;jettySize=auto;html=1;entryX=0.5;entryY=0;entryDx=0;entryDy=0;endArrow=block;endFill=0;fillColor=#dae8fc;strokeColor=#6c8ebf;" parent="1" source="_nVs0SrbICBYPmGhIl3n-134" target="L1R1iuNIGhqfOI-RQ1aq-19" edge="1">
          <mxGeometry relative="1" as="geometry" />
        </mxCell>
        <mxCell id="L1R1iuNIGhqfOI-RQ1aq-31" style="edgeStyle=orthogonalEdgeStyle;rounded=0;orthogonalLoop=1;jettySize=auto;html=1;exitX=0.5;exitY=1;exitDx=0;exitDy=0;entryX=0.5;entryY=0;entryDx=0;entryDy=0;endArrow=block;endFill=0;fillColor=#dae8fc;strokeColor=#6c8ebf;" parent="1" source="_nVs0SrbICBYPmGhIl3n-134" target="L1R1iuNIGhqfOI-RQ1aq-25" edge="1">
          <mxGeometry relative="1" as="geometry" />
        </mxCell>
        <mxCell id="_nVs0SrbICBYPmGhIl3n-134" value="«interface»&lt;br&gt;&lt;b&gt;DatabaseInterface&lt;/b&gt;" style="html=1;whiteSpace=wrap;fillColor=#dae8fc;strokeColor=#6c8ebf;" parent="1" vertex="1">
          <mxGeometry x="-2665" y="230" width="140" height="50" as="geometry" />
        </mxCell>
        <mxCell id="_nVs0SrbICBYPmGhIl3n-135" value="ObjectBase" style="swimlane;fontStyle=1;align=center;verticalAlign=top;childLayout=stackLayout;horizontal=1;startSize=26;horizontalStack=0;resizeParent=1;resizeParentMax=0;resizeLast=0;collapsible=1;marginBottom=0;whiteSpace=wrap;html=1;fillColor=#dae8fc;strokeColor=#6c8ebf;" parent="1" vertex="1">
          <mxGeometry x="-2130" y="850" width="160" height="104" as="geometry" />
        </mxCell>
        <mxCell id="_nVs0SrbICBYPmGhIl3n-136" value="+ ID: unsigned" style="text;strokeColor=#6c8ebf;fillColor=#dae8fc;align=left;verticalAlign=top;spacingLeft=4;spacingRight=4;overflow=hidden;rotatable=0;points=[[0,0.5],[1,0.5]];portConstraint=eastwest;whiteSpace=wrap;html=1;" parent="_nVs0SrbICBYPmGhIl3n-135" vertex="1">
          <mxGeometry y="26" width="160" height="26" as="geometry" />
        </mxCell>
        <mxCell id="_nVs0SrbICBYPmGhIl3n-143" value="+ Name: string" style="text;strokeColor=#6c8ebf;fillColor=#dae8fc;align=left;verticalAlign=top;spacingLeft=4;spacingRight=4;overflow=hidden;rotatable=0;points=[[0,0.5],[1,0.5]];portConstraint=eastwest;whiteSpace=wrap;html=1;" parent="_nVs0SrbICBYPmGhIl3n-135" vertex="1">
          <mxGeometry y="52" width="160" height="26" as="geometry" />
        </mxCell>
        <mxCell id="_nVs0SrbICBYPmGhIl3n-138" value="+&amp;nbsp; getName(): string" style="text;strokeColor=#6c8ebf;fillColor=#dae8fc;align=left;verticalAlign=top;spacingLeft=4;spacingRight=4;overflow=hidden;rotatable=0;points=[[0,0.5],[1,0.5]];portConstraint=eastwest;whiteSpace=wrap;html=1;" parent="_nVs0SrbICBYPmGhIl3n-135" vertex="1">
          <mxGeometry y="78" width="160" height="26" as="geometry" />
        </mxCell>
        <mxCell id="_nVs0SrbICBYPmGhIl3n-139" style="edgeStyle=orthogonalEdgeStyle;rounded=0;orthogonalLoop=1;jettySize=auto;html=1;exitX=0;exitY=0.5;exitDx=0;exitDy=0;entryX=0.5;entryY=0;entryDx=0;entryDy=0;endArrow=none;endFill=0;fillColor=#dae8fc;strokeColor=#6c8ebf;" parent="1" source="_nVs0SrbICBYPmGhIl3n-17" target="_nVs0SrbICBYPmGhIl3n-134" edge="1">
          <mxGeometry relative="1" as="geometry" />
        </mxCell>
        <mxCell id="_nVs0SrbICBYPmGhIl3n-215" value="- DB_connection" style="edgeLabel;html=1;align=center;verticalAlign=middle;resizable=0;points=[];fontSize=14;" parent="_nVs0SrbICBYPmGhIl3n-139" vertex="1" connectable="0">
          <mxGeometry x="-0.9335" y="-1" relative="1" as="geometry">
            <mxPoint x="-28" y="1" as="offset" />
          </mxGeometry>
        </mxCell>
        <mxCell id="_nVs0SrbICBYPmGhIl3n-157" style="edgeStyle=orthogonalEdgeStyle;rounded=0;orthogonalLoop=1;jettySize=auto;html=1;entryX=0.5;entryY=0;entryDx=0;entryDy=0;endArrow=block;endFill=0;fillColor=#dae8fc;strokeColor=#6c8ebf;" parent="1" source="_nVs0SrbICBYPmGhIl3n-144" target="_nVs0SrbICBYPmGhIl3n-135" edge="1">
          <mxGeometry relative="1" as="geometry">
            <Array as="points">
              <mxPoint x="-2295" y="650" />
              <mxPoint x="-2050" y="650" />
            </Array>
            <mxPoint x="-2064.9999999999995" y="829.9999999999995" as="targetPoint" />
          </mxGeometry>
        </mxCell>
        <mxCell id="_nVs0SrbICBYPmGhIl3n-144" value="SongObject" style="swimlane;fontStyle=0;childLayout=stackLayout;horizontal=1;startSize=26;fillColor=#dae8fc;horizontalStack=0;resizeParent=1;resizeParentMax=0;resizeLast=0;collapsible=1;marginBottom=0;whiteSpace=wrap;html=1;strokeColor=#6c8ebf;" parent="1" vertex="1">
          <mxGeometry x="-2365" y="500" width="140" height="104" as="geometry" />
        </mxCell>
        <mxCell id="_nVs0SrbICBYPmGhIl3n-146" value="+ AuthorID: unsigned" style="text;strokeColor=#6c8ebf;fillColor=#dae8fc;align=left;verticalAlign=top;spacingLeft=4;spacingRight=4;overflow=hidden;rotatable=0;points=[[0,0.5],[1,0.5]];portConstraint=eastwest;whiteSpace=wrap;html=1;" parent="_nVs0SrbICBYPmGhIl3n-144" vertex="1">
          <mxGeometry y="26" width="140" height="26" as="geometry" />
        </mxCell>
        <mxCell id="_nVs0SrbICBYPmGhIl3n-147" value="+ AlbumID: unsigned&amp;nbsp;" style="text;strokeColor=#6c8ebf;fillColor=#dae8fc;align=left;verticalAlign=top;spacingLeft=4;spacingRight=4;overflow=hidden;rotatable=0;points=[[0,0.5],[1,0.5]];portConstraint=eastwest;whiteSpace=wrap;html=1;" parent="_nVs0SrbICBYPmGhIl3n-144" vertex="1">
          <mxGeometry y="52" width="140" height="26" as="geometry" />
        </mxCell>
        <mxCell id="_nVs0SrbICBYPmGhIl3n-156" value="+ File: file" style="text;strokeColor=#6c8ebf;fillColor=#dae8fc;align=left;verticalAlign=top;spacingLeft=4;spacingRight=4;overflow=hidden;rotatable=0;points=[[0,0.5],[1,0.5]];portConstraint=eastwest;whiteSpace=wrap;html=1;" parent="_nVs0SrbICBYPmGhIl3n-144" vertex="1">
          <mxGeometry y="78" width="140" height="26" as="geometry" />
        </mxCell>
        <mxCell id="_nVs0SrbICBYPmGhIl3n-158" style="edgeStyle=orthogonalEdgeStyle;rounded=0;orthogonalLoop=1;jettySize=auto;html=1;entryX=0.5;entryY=0;entryDx=0;entryDy=0;endArrow=block;endFill=0;fillColor=#dae8fc;strokeColor=#6c8ebf;" parent="1" source="_nVs0SrbICBYPmGhIl3n-148" target="_nVs0SrbICBYPmGhIl3n-135" edge="1">
          <mxGeometry relative="1" as="geometry">
            <Array as="points">
              <mxPoint x="-1940" y="650" />
              <mxPoint x="-2050" y="650" />
            </Array>
          </mxGeometry>
        </mxCell>
        <mxCell id="_nVs0SrbICBYPmGhIl3n-148" value="AuthorObject" style="swimlane;fontStyle=0;childLayout=stackLayout;horizontal=1;startSize=26;fillColor=#dae8fc;horizontalStack=0;resizeParent=1;resizeParentMax=0;resizeLast=0;collapsible=1;marginBottom=0;whiteSpace=wrap;html=1;strokeColor=#6c8ebf;" parent="1" vertex="1">
          <mxGeometry x="-2015" y="570" width="190" height="52" as="geometry" />
        </mxCell>
        <mxCell id="_nVs0SrbICBYPmGhIl3n-149" value="+ songs: list&amp;lt;SongObject&amp;gt;" style="text;strokeColor=#6c8ebf;fillColor=#dae8fc;align=left;verticalAlign=top;spacingLeft=4;spacingRight=4;overflow=hidden;rotatable=0;points=[[0,0.5],[1,0.5]];portConstraint=eastwest;whiteSpace=wrap;html=1;" parent="_nVs0SrbICBYPmGhIl3n-148" vertex="1">
          <mxGeometry y="26" width="190" height="26" as="geometry" />
        </mxCell>
        <mxCell id="_nVs0SrbICBYPmGhIl3n-164" style="edgeStyle=orthogonalEdgeStyle;rounded=0;orthogonalLoop=1;jettySize=auto;html=1;entryX=0.5;entryY=0;entryDx=0;entryDy=0;endArrow=block;endFill=0;fillColor=#dae8fc;strokeColor=#6c8ebf;exitX=0.5;exitY=1;exitDx=0;exitDy=0;" parent="1" source="_nVs0SrbICBYPmGhIl3n-160" target="_nVs0SrbICBYPmGhIl3n-135" edge="1">
          <mxGeometry relative="1" as="geometry">
            <Array as="points">
              <mxPoint x="-2125" y="576" />
              <mxPoint x="-2050" y="576" />
            </Array>
            <mxPoint x="-2064.9999999999995" y="829.9999999999995" as="targetPoint" />
          </mxGeometry>
        </mxCell>
        <mxCell id="_nVs0SrbICBYPmGhIl3n-160" value="PlaylistObject" style="swimlane;fontStyle=0;childLayout=stackLayout;horizontal=1;startSize=26;fillColor=#dae8fc;horizontalStack=0;resizeParent=1;resizeParentMax=0;resizeLast=0;collapsible=1;marginBottom=0;whiteSpace=wrap;html=1;strokeColor=#6c8ebf;" parent="1" vertex="1">
          <mxGeometry x="-2215" y="422" width="180" height="78" as="geometry" />
        </mxCell>
        <mxCell id="_nVs0SrbICBYPmGhIl3n-161" value="+ ownerID: unsigned" style="text;strokeColor=#6c8ebf;fillColor=#dae8fc;align=left;verticalAlign=top;spacingLeft=4;spacingRight=4;overflow=hidden;rotatable=0;points=[[0,0.5],[1,0.5]];portConstraint=eastwest;whiteSpace=wrap;html=1;" parent="_nVs0SrbICBYPmGhIl3n-160" vertex="1">
          <mxGeometry y="26" width="180" height="26" as="geometry" />
        </mxCell>
        <mxCell id="_nVs0SrbICBYPmGhIl3n-162" value="+ songs_IDs: list&amp;lt;unsigned&amp;gt;" style="text;strokeColor=#6c8ebf;fillColor=#dae8fc;align=left;verticalAlign=top;spacingLeft=4;spacingRight=4;overflow=hidden;rotatable=0;points=[[0,0.5],[1,0.5]];portConstraint=eastwest;whiteSpace=wrap;html=1;" parent="_nVs0SrbICBYPmGhIl3n-160" vertex="1">
          <mxGeometry y="52" width="180" height="26" as="geometry" />
        </mxCell>
        <mxCell id="_nVs0SrbICBYPmGhIl3n-170" style="edgeStyle=orthogonalEdgeStyle;rounded=0;orthogonalLoop=1;jettySize=auto;html=1;entryX=0.5;entryY=0;entryDx=0;entryDy=0;endArrow=block;endFill=0;fillColor=#dae8fc;strokeColor=#6c8ebf;" parent="1" source="_nVs0SrbICBYPmGhIl3n-165" target="_nVs0SrbICBYPmGhIl3n-135" edge="1">
          <mxGeometry relative="1" as="geometry" />
        </mxCell>
        <mxCell id="_nVs0SrbICBYPmGhIl3n-165" value="AlbumObject" style="swimlane;fontStyle=0;childLayout=stackLayout;horizontal=1;startSize=26;fillColor=#dae8fc;horizontalStack=0;resizeParent=1;resizeParentMax=0;resizeLast=0;collapsible=1;marginBottom=0;whiteSpace=wrap;html=1;strokeColor=#6c8ebf;" parent="1" vertex="1">
          <mxGeometry x="-2020" y="667" width="200" height="78" as="geometry" />
        </mxCell>
        <mxCell id="_nVs0SrbICBYPmGhIl3n-166" value="+ songs_IDs: list&amp;lt;unsigned&amp;gt;" style="text;strokeColor=#6c8ebf;fillColor=#dae8fc;align=left;verticalAlign=top;spacingLeft=4;spacingRight=4;overflow=hidden;rotatable=0;points=[[0,0.5],[1,0.5]];portConstraint=eastwest;whiteSpace=wrap;html=1;" parent="_nVs0SrbICBYPmGhIl3n-165" vertex="1">
          <mxGeometry y="26" width="200" height="26" as="geometry" />
        </mxCell>
        <mxCell id="_nVs0SrbICBYPmGhIl3n-167" value="+ authorID: unsigned" style="text;strokeColor=#6c8ebf;fillColor=#dae8fc;align=left;verticalAlign=top;spacingLeft=4;spacingRight=4;overflow=hidden;rotatable=0;points=[[0,0.5],[1,0.5]];portConstraint=eastwest;whiteSpace=wrap;html=1;" parent="_nVs0SrbICBYPmGhIl3n-165" vertex="1">
          <mxGeometry y="52" width="200" height="26" as="geometry" />
        </mxCell>
        <mxCell id="_nVs0SrbICBYPmGhIl3n-175" style="edgeStyle=orthogonalEdgeStyle;rounded=0;orthogonalLoop=1;jettySize=auto;html=1;entryX=0.5;entryY=0;entryDx=0;entryDy=0;endArrow=block;endFill=0;fillColor=#dae8fc;strokeColor=#6c8ebf;" parent="1" source="_nVs0SrbICBYPmGhIl3n-171" target="_nVs0SrbICBYPmGhIl3n-135" edge="1">
          <mxGeometry relative="1" as="geometry">
            <mxPoint x="-2064.9999999999995" y="829.9999999999995" as="targetPoint" />
          </mxGeometry>
        </mxCell>
        <mxCell id="_nVs0SrbICBYPmGhIl3n-171" value="UserObject" style="swimlane;fontStyle=0;childLayout=stackLayout;horizontal=1;startSize=26;fillColor=#dae8fc;horizontalStack=0;resizeParent=1;resizeParentMax=0;resizeLast=0;collapsible=1;marginBottom=0;whiteSpace=wrap;html=1;strokeColor=#6c8ebf;" parent="1" vertex="1">
          <mxGeometry x="-2375" y="694" width="210" height="52" as="geometry" />
        </mxCell>
        <mxCell id="_nVs0SrbICBYPmGhIl3n-172" value="playlists_IDs: list&amp;lt;unsigned&amp;gt;&amp;nbsp;" style="text;strokeColor=#6c8ebf;fillColor=#dae8fc;align=left;verticalAlign=top;spacingLeft=4;spacingRight=4;overflow=hidden;rotatable=0;points=[[0,0.5],[1,0.5]];portConstraint=eastwest;whiteSpace=wrap;html=1;" parent="_nVs0SrbICBYPmGhIl3n-171" vertex="1">
          <mxGeometry y="26" width="210" height="26" as="geometry" />
        </mxCell>
        <mxCell id="_nVs0SrbICBYPmGhIl3n-212" style="edgeStyle=orthogonalEdgeStyle;rounded=0;orthogonalLoop=1;jettySize=auto;html=1;exitX=0.5;exitY=1;exitDx=0;exitDy=0;entryX=0.5;entryY=0;entryDx=0;entryDy=0;endArrow=block;endFill=0;fillColor=#dae8fc;strokeColor=#6c8ebf;" parent="1" source="_nVs0SrbICBYPmGhIl3n-176" target="_nVs0SrbICBYPmGhIl3n-204" edge="1">
          <mxGeometry relative="1" as="geometry" />
        </mxCell>
        <mxCell id="_nVs0SrbICBYPmGhIl3n-213" style="edgeStyle=orthogonalEdgeStyle;rounded=0;orthogonalLoop=1;jettySize=auto;html=1;exitX=0.5;exitY=1;exitDx=0;exitDy=0;entryX=0.5;entryY=0;entryDx=0;entryDy=0;endArrow=block;endFill=0;fillColor=#dae8fc;strokeColor=#6c8ebf;" parent="1" source="_nVs0SrbICBYPmGhIl3n-176" target="_nVs0SrbICBYPmGhIl3n-208" edge="1">
          <mxGeometry relative="1" as="geometry" />
        </mxCell>
        <mxCell id="L1R1iuNIGhqfOI-RQ1aq-32" style="edgeStyle=orthogonalEdgeStyle;rounded=0;orthogonalLoop=1;jettySize=auto;html=1;exitX=0.5;exitY=0;exitDx=0;exitDy=0;fillColor=#dae8fc;strokeColor=#6c8ebf;" parent="1" source="_nVs0SrbICBYPmGhIl3n-176" target="L1R1iuNIGhqfOI-RQ1aq-25" edge="1">
          <mxGeometry relative="1" as="geometry" />
        </mxCell>
        <mxCell id="_nVs0SrbICBYPmGhIl3n-176" value="DatabaseClient" style="swimlane;fontStyle=0;childLayout=stackLayout;horizontal=1;startSize=26;fillColor=#dae8fc;horizontalStack=0;resizeParent=1;resizeParentMax=0;resizeLast=0;collapsible=1;marginBottom=0;whiteSpace=wrap;html=1;strokeColor=#6c8ebf;" parent="1" vertex="1">
          <mxGeometry x="-2605" y="525" width="230" height="78" as="geometry" />
        </mxCell>
        <mxCell id="_nVs0SrbICBYPmGhIl3n-177" value="+ db_connection: DB" style="text;strokeColor=#6c8ebf;fillColor=#dae8fc;align=left;verticalAlign=top;spacingLeft=4;spacingRight=4;overflow=hidden;rotatable=0;points=[[0,0.5],[1,0.5]];portConstraint=eastwest;whiteSpace=wrap;html=1;" parent="_nVs0SrbICBYPmGhIl3n-176" vertex="1">
          <mxGeometry y="26" width="230" height="26" as="geometry" />
        </mxCell>
        <mxCell id="_nVs0SrbICBYPmGhIl3n-214" value="+ connectToDB(): status" style="text;strokeColor=#6c8ebf;fillColor=#dae8fc;align=left;verticalAlign=top;spacingLeft=4;spacingRight=4;overflow=hidden;rotatable=0;points=[[0,0.5],[1,0.5]];portConstraint=eastwest;whiteSpace=wrap;html=1;" parent="_nVs0SrbICBYPmGhIl3n-176" vertex="1">
          <mxGeometry y="52" width="230" height="26" as="geometry" />
        </mxCell>
        <mxCell id="L1R1iuNIGhqfOI-RQ1aq-24" style="edgeStyle=orthogonalEdgeStyle;rounded=0;orthogonalLoop=1;jettySize=auto;html=1;exitX=0.5;exitY=0;exitDx=0;exitDy=0;fillColor=#dae8fc;strokeColor=#6c8ebf;" parent="1" source="_nVs0SrbICBYPmGhIl3n-186" target="L1R1iuNIGhqfOI-RQ1aq-19" edge="1">
          <mxGeometry relative="1" as="geometry" />
        </mxCell>
        <mxCell id="_nVs0SrbICBYPmGhIl3n-186" value="StorageClass" style="swimlane;fontStyle=1;align=center;verticalAlign=top;childLayout=stackLayout;horizontal=1;startSize=26;horizontalStack=0;resizeParent=1;resizeParentMax=0;resizeLast=0;collapsible=1;marginBottom=0;whiteSpace=wrap;html=1;fillColor=#dae8fc;strokeColor=#6c8ebf;" parent="1" vertex="1">
          <mxGeometry x="-2840" y="525" width="160" height="78" as="geometry" />
        </mxCell>
        <mxCell id="_nVs0SrbICBYPmGhIl3n-190" value="+ saveFile(file): status" style="text;strokeColor=#6c8ebf;fillColor=#dae8fc;align=left;verticalAlign=top;spacingLeft=4;spacingRight=4;overflow=hidden;rotatable=0;points=[[0,0.5],[1,0.5]];portConstraint=eastwest;whiteSpace=wrap;html=1;" parent="_nVs0SrbICBYPmGhIl3n-186" vertex="1">
          <mxGeometry y="26" width="160" height="26" as="geometry" />
        </mxCell>
        <mxCell id="_nVs0SrbICBYPmGhIl3n-189" value="+ loadFile(string): file" style="text;strokeColor=#6c8ebf;fillColor=#dae8fc;align=left;verticalAlign=top;spacingLeft=4;spacingRight=4;overflow=hidden;rotatable=0;points=[[0,0.5],[1,0.5]];portConstraint=eastwest;whiteSpace=wrap;html=1;" parent="_nVs0SrbICBYPmGhIl3n-186" vertex="1">
          <mxGeometry y="52" width="160" height="26" as="geometry" />
        </mxCell>
        <mxCell id="_nVs0SrbICBYPmGhIl3n-204" value="DatabaseClientCreateBase" style="swimlane;fontStyle=0;childLayout=stackLayout;horizontal=1;startSize=26;fillColor=#dae8fc;horizontalStack=0;resizeParent=1;resizeParentMax=0;resizeLast=0;collapsible=1;marginBottom=0;whiteSpace=wrap;html=1;strokeColor=#6c8ebf;" parent="1" vertex="1">
          <mxGeometry x="-2795" y="872" width="220" height="156" as="geometry" />
        </mxCell>
        <mxCell id="_nVs0SrbICBYPmGhIl3n-201" value="+ createAlbum(AlbumObject): status" style="text;strokeColor=#6c8ebf;fillColor=#dae8fc;align=left;verticalAlign=top;spacingLeft=4;spacingRight=4;overflow=hidden;rotatable=0;points=[[0,0.5],[1,0.5]];portConstraint=eastwest;whiteSpace=wrap;html=1;" parent="_nVs0SrbICBYPmGhIl3n-204" vertex="1">
          <mxGeometry y="26" width="220" height="26" as="geometry" />
        </mxCell>
        <mxCell id="_nVs0SrbICBYPmGhIl3n-202" value="+ createPlaylist(PlaylistObject): status" style="text;strokeColor=#6c8ebf;fillColor=#dae8fc;align=left;verticalAlign=top;spacingLeft=4;spacingRight=4;overflow=hidden;rotatable=0;points=[[0,0.5],[1,0.5]];portConstraint=eastwest;whiteSpace=wrap;html=1;" parent="_nVs0SrbICBYPmGhIl3n-204" vertex="1">
          <mxGeometry y="52" width="220" height="26" as="geometry" />
        </mxCell>
        <mxCell id="_nVs0SrbICBYPmGhIl3n-200" value="+ createAuthor(AuthorObject): status" style="text;strokeColor=#6c8ebf;fillColor=#dae8fc;align=left;verticalAlign=top;spacingLeft=4;spacingRight=4;overflow=hidden;rotatable=0;points=[[0,0.5],[1,0.5]];portConstraint=eastwest;whiteSpace=wrap;html=1;" parent="_nVs0SrbICBYPmGhIl3n-204" vertex="1">
          <mxGeometry y="78" width="220" height="26" as="geometry" />
        </mxCell>
        <mxCell id="_nVs0SrbICBYPmGhIl3n-203" value="+ createUser(UserObject): status" style="text;strokeColor=#6c8ebf;fillColor=#dae8fc;align=left;verticalAlign=top;spacingLeft=4;spacingRight=4;overflow=hidden;rotatable=0;points=[[0,0.5],[1,0.5]];portConstraint=eastwest;whiteSpace=wrap;html=1;" parent="_nVs0SrbICBYPmGhIl3n-204" vertex="1">
          <mxGeometry y="104" width="220" height="26" as="geometry" />
        </mxCell>
        <mxCell id="_nVs0SrbICBYPmGhIl3n-199" value="+ createSong(SongObject): status" style="text;strokeColor=#6c8ebf;fillColor=#dae8fc;align=left;verticalAlign=top;spacingLeft=4;spacingRight=4;overflow=hidden;rotatable=0;points=[[0,0.5],[1,0.5]];portConstraint=eastwest;whiteSpace=wrap;html=1;" parent="_nVs0SrbICBYPmGhIl3n-204" vertex="1">
          <mxGeometry y="130" width="220" height="26" as="geometry" />
        </mxCell>
        <mxCell id="_nVs0SrbICBYPmGhIl3n-208" value="DatabaseClientRetrieveBase" style="swimlane;fontStyle=0;childLayout=stackLayout;horizontal=1;startSize=26;fillColor=#dae8fc;horizontalStack=0;resizeParent=1;resizeParentMax=0;resizeLast=0;collapsible=1;marginBottom=0;whiteSpace=wrap;html=1;strokeColor=#6c8ebf;" parent="1" vertex="1">
          <mxGeometry x="-2555" y="872" width="220" height="156" as="geometry" />
        </mxCell>
        <mxCell id="_nVs0SrbICBYPmGhIl3n-194" value="+ getSong(unsigned): SongObject" style="text;strokeColor=#6c8ebf;fillColor=#dae8fc;align=left;verticalAlign=top;spacingLeft=4;spacingRight=4;overflow=hidden;rotatable=0;points=[[0,0.5],[1,0.5]];portConstraint=eastwest;whiteSpace=wrap;html=1;" parent="_nVs0SrbICBYPmGhIl3n-208" vertex="1">
          <mxGeometry y="26" width="220" height="26" as="geometry" />
        </mxCell>
        <mxCell id="_nVs0SrbICBYPmGhIl3n-192" value="+ getAuthor(unsigned): AuthorObject" style="text;strokeColor=#6c8ebf;fillColor=#dae8fc;align=left;verticalAlign=top;spacingLeft=4;spacingRight=4;overflow=hidden;rotatable=0;points=[[0,0.5],[1,0.5]];portConstraint=eastwest;whiteSpace=wrap;html=1;" parent="_nVs0SrbICBYPmGhIl3n-208" vertex="1">
          <mxGeometry y="52" width="220" height="26" as="geometry" />
        </mxCell>
        <mxCell id="_nVs0SrbICBYPmGhIl3n-196" value="+ getUser(unsigned): UserObject" style="text;strokeColor=#6c8ebf;fillColor=#dae8fc;align=left;verticalAlign=top;spacingLeft=4;spacingRight=4;overflow=hidden;rotatable=0;points=[[0,0.5],[1,0.5]];portConstraint=eastwest;whiteSpace=wrap;html=1;" parent="_nVs0SrbICBYPmGhIl3n-208" vertex="1">
          <mxGeometry y="78" width="220" height="26" as="geometry" />
        </mxCell>
        <mxCell id="_nVs0SrbICBYPmGhIl3n-198" value="+ getPlaylist(unsigned): PlaylistObject" style="text;strokeColor=#6c8ebf;fillColor=#dae8fc;align=left;verticalAlign=top;spacingLeft=4;spacingRight=4;overflow=hidden;rotatable=0;points=[[0,0.5],[1,0.5]];portConstraint=eastwest;whiteSpace=wrap;html=1;" parent="_nVs0SrbICBYPmGhIl3n-208" vertex="1">
          <mxGeometry y="104" width="220" height="26" as="geometry" />
        </mxCell>
        <mxCell id="_nVs0SrbICBYPmGhIl3n-195" value="+ getAlbum(unsigned): AlbumObject" style="text;strokeColor=#6c8ebf;fillColor=#dae8fc;align=left;verticalAlign=top;spacingLeft=4;spacingRight=4;overflow=hidden;rotatable=0;points=[[0,0.5],[1,0.5]];portConstraint=eastwest;whiteSpace=wrap;html=1;" parent="_nVs0SrbICBYPmGhIl3n-208" vertex="1">
          <mxGeometry y="130" width="220" height="26" as="geometry" />
        </mxCell>
        <mxCell id="_nVs0SrbICBYPmGhIl3n-220" value="PlaybackClass" style="swimlane;fontStyle=1;align=center;verticalAlign=top;childLayout=stackLayout;horizontal=1;startSize=26;horizontalStack=0;resizeParent=1;resizeParentMax=0;resizeLast=0;collapsible=1;marginBottom=0;whiteSpace=wrap;html=1;fillColor=#f8cecc;strokeColor=#b85450;" parent="1" vertex="1">
          <mxGeometry x="-1310" y="-554" width="160" height="52" as="geometry" />
        </mxCell>
        <mxCell id="L1R1iuNIGhqfOI-RQ1aq-48" style="edgeStyle=orthogonalEdgeStyle;rounded=0;orthogonalLoop=1;jettySize=auto;html=1;entryX=0.5;entryY=0;entryDx=0;entryDy=0;fillColor=#f8cecc;strokeColor=#b85450;" parent="1" source="_nVs0SrbICBYPmGhIl3n-224" target="L1R1iuNIGhqfOI-RQ1aq-34" edge="1">
          <mxGeometry relative="1" as="geometry" />
        </mxCell>
        <mxCell id="_nVs0SrbICBYPmGhIl3n-224" value="QueueClass" style="swimlane;fontStyle=1;align=center;verticalAlign=top;childLayout=stackLayout;horizontal=1;startSize=26;horizontalStack=0;resizeParent=1;resizeParentMax=0;resizeLast=0;collapsible=1;marginBottom=0;whiteSpace=wrap;html=1;fillColor=#f8cecc;strokeColor=#b85450;" parent="1" vertex="1">
          <mxGeometry x="-1620" y="-450" width="240" height="130" as="geometry" />
        </mxCell>
        <mxCell id="_nVs0SrbICBYPmGhIl3n-225" value="+ queue: PlaylistObject" style="text;strokeColor=#b85450;fillColor=#f8cecc;align=left;verticalAlign=top;spacingLeft=4;spacingRight=4;overflow=hidden;rotatable=0;points=[[0,0.5],[1,0.5]];portConstraint=eastwest;whiteSpace=wrap;html=1;" parent="_nVs0SrbICBYPmGhIl3n-224" vertex="1">
          <mxGeometry y="26" width="240" height="26" as="geometry" />
        </mxCell>
        <mxCell id="_nVs0SrbICBYPmGhIl3n-238" value="+ queueFlags: QueueFlagsEnum" style="text;strokeColor=#b85450;fillColor=#f8cecc;align=left;verticalAlign=top;spacingLeft=4;spacingRight=4;overflow=hidden;rotatable=0;points=[[0,0.5],[1,0.5]];portConstraint=eastwest;whiteSpace=wrap;html=1;" parent="_nVs0SrbICBYPmGhIl3n-224" vertex="1">
          <mxGeometry y="52" width="240" height="26" as="geometry" />
        </mxCell>
        <mxCell id="_nVs0SrbICBYPmGhIl3n-239" value="+ setQueueState(QueueFlagsEnum): status" style="text;strokeColor=#b85450;fillColor=#f8cecc;align=left;verticalAlign=top;spacingLeft=4;spacingRight=4;overflow=hidden;rotatable=0;points=[[0,0.5],[1,0.5]];portConstraint=eastwest;whiteSpace=wrap;html=1;" parent="_nVs0SrbICBYPmGhIl3n-224" vertex="1">
          <mxGeometry y="78" width="240" height="26" as="geometry" />
        </mxCell>
        <mxCell id="_nVs0SrbICBYPmGhIl3n-227" value="+ setQueue(PlaylistObject): status" style="text;strokeColor=#b85450;fillColor=#f8cecc;align=left;verticalAlign=top;spacingLeft=4;spacingRight=4;overflow=hidden;rotatable=0;points=[[0,0.5],[1,0.5]];portConstraint=eastwest;whiteSpace=wrap;html=1;" parent="_nVs0SrbICBYPmGhIl3n-224" vertex="1">
          <mxGeometry y="104" width="240" height="26" as="geometry" />
        </mxCell>
        <mxCell id="L1R1iuNIGhqfOI-RQ1aq-51" style="edgeStyle=orthogonalEdgeStyle;rounded=0;orthogonalLoop=1;jettySize=auto;html=1;entryX=0.5;entryY=0;entryDx=0;entryDy=0;fillColor=#f8cecc;strokeColor=#b85450;" parent="1" source="_nVs0SrbICBYPmGhIl3n-228" target="L1R1iuNIGhqfOI-RQ1aq-38" edge="1">
          <mxGeometry relative="1" as="geometry" />
        </mxCell>
        <mxCell id="_nVs0SrbICBYPmGhIl3n-228" value="SongClass" style="swimlane;fontStyle=1;align=center;verticalAlign=top;childLayout=stackLayout;horizontal=1;startSize=26;horizontalStack=0;resizeParent=1;resizeParentMax=0;resizeLast=0;collapsible=1;marginBottom=0;whiteSpace=wrap;html=1;fillColor=#f8cecc;strokeColor=#b85450;" parent="1" vertex="1">
          <mxGeometry x="-1070" y="-450" width="250" height="130" as="geometry" />
        </mxCell>
        <mxCell id="_nVs0SrbICBYPmGhIl3n-229" value="+ currentSong: SongObject" style="text;strokeColor=#b85450;fillColor=#f8cecc;align=left;verticalAlign=top;spacingLeft=4;spacingRight=4;overflow=hidden;rotatable=0;points=[[0,0.5],[1,0.5]];portConstraint=eastwest;whiteSpace=wrap;html=1;" parent="_nVs0SrbICBYPmGhIl3n-228" vertex="1">
          <mxGeometry y="26" width="250" height="26" as="geometry" />
        </mxCell>
        <mxCell id="_nVs0SrbICBYPmGhIl3n-236" value="+ songFlags: SongFlagsEnum" style="text;strokeColor=#b85450;fillColor=#f8cecc;align=left;verticalAlign=top;spacingLeft=4;spacingRight=4;overflow=hidden;rotatable=0;points=[[0,0.5],[1,0.5]];portConstraint=eastwest;whiteSpace=wrap;html=1;" parent="_nVs0SrbICBYPmGhIl3n-228" vertex="1">
          <mxGeometry y="52" width="250" height="26" as="geometry" />
        </mxCell>
        <mxCell id="_nVs0SrbICBYPmGhIl3n-231" value="+ setSong(SongObject): status" style="text;strokeColor=#b85450;fillColor=#f8cecc;align=left;verticalAlign=top;spacingLeft=4;spacingRight=4;overflow=hidden;rotatable=0;points=[[0,0.5],[1,0.5]];portConstraint=eastwest;whiteSpace=wrap;html=1;" parent="_nVs0SrbICBYPmGhIl3n-228" vertex="1">
          <mxGeometry y="78" width="250" height="26" as="geometry" />
        </mxCell>
        <mxCell id="_nVs0SrbICBYPmGhIl3n-237" value="+ setSongState(SongFlagsEnum): status" style="text;strokeColor=#b85450;fillColor=#f8cecc;align=left;verticalAlign=top;spacingLeft=4;spacingRight=4;overflow=hidden;rotatable=0;points=[[0,0.5],[1,0.5]];portConstraint=eastwest;whiteSpace=wrap;html=1;" parent="_nVs0SrbICBYPmGhIl3n-228" vertex="1">
          <mxGeometry y="104" width="250" height="26" as="geometry" />
        </mxCell>
        <mxCell id="_nVs0SrbICBYPmGhIl3n-232" style="edgeStyle=orthogonalEdgeStyle;rounded=0;orthogonalLoop=1;jettySize=auto;html=1;exitX=0;exitY=0.5;exitDx=0;exitDy=0;entryX=1;entryY=0.5;entryDx=0;entryDy=0;endArrow=none;endFill=0;fillColor=#f8cecc;strokeColor=#b85450;" parent="1" target="_nVs0SrbICBYPmGhIl3n-225" edge="1">
          <mxGeometry relative="1" as="geometry">
            <mxPoint x="-1310" y="-515" as="sourcePoint" />
          </mxGeometry>
        </mxCell>
        <mxCell id="_nVs0SrbICBYPmGhIl3n-234" value="- queueState" style="edgeLabel;html=1;align=center;verticalAlign=middle;resizable=0;points=[];fontSize=14;" parent="_nVs0SrbICBYPmGhIl3n-232" vertex="1" connectable="0">
          <mxGeometry x="-0.7015" y="-2" relative="1" as="geometry">
            <mxPoint x="-29" y="2" as="offset" />
          </mxGeometry>
        </mxCell>
        <mxCell id="_nVs0SrbICBYPmGhIl3n-233" style="edgeStyle=orthogonalEdgeStyle;rounded=0;orthogonalLoop=1;jettySize=auto;html=1;exitX=1;exitY=0.5;exitDx=0;exitDy=0;entryX=0;entryY=0.5;entryDx=0;entryDy=0;endArrow=none;endFill=0;fillColor=#f8cecc;strokeColor=#b85450;" parent="1" target="_nVs0SrbICBYPmGhIl3n-229" edge="1">
          <mxGeometry relative="1" as="geometry">
            <mxPoint x="-1150" y="-515" as="sourcePoint" />
          </mxGeometry>
        </mxCell>
        <mxCell id="_nVs0SrbICBYPmGhIl3n-235" value="- songState" style="edgeLabel;html=1;align=center;verticalAlign=middle;resizable=0;points=[];fontSize=13;" parent="_nVs0SrbICBYPmGhIl3n-233" vertex="1" connectable="0">
          <mxGeometry x="-0.712" relative="1" as="geometry">
            <mxPoint x="20" as="offset" />
          </mxGeometry>
        </mxCell>
        <mxCell id="L1R1iuNIGhqfOI-RQ1aq-3" value="ControllerDatabaseBase" style="swimlane;fontStyle=1;align=center;verticalAlign=top;childLayout=stackLayout;horizontal=1;startSize=26;horizontalStack=0;resizeParent=1;resizeParentMax=0;resizeLast=0;collapsible=1;marginBottom=0;whiteSpace=wrap;html=1;fillColor=#e1d5e7;strokeColor=#9673a6;" parent="1" vertex="1">
          <mxGeometry x="-1780" y="130" width="290" height="156" as="geometry" />
        </mxCell>
        <mxCell id="L1R1iuNIGhqfOI-RQ1aq-7" value="+ retrievePlaylistFromDB(unsigned): PlaylistObject" style="text;strokeColor=#9673a6;fillColor=#e1d5e7;align=left;verticalAlign=top;spacingLeft=4;spacingRight=4;overflow=hidden;rotatable=0;points=[[0,0.5],[1,0.5]];portConstraint=eastwest;whiteSpace=wrap;html=1;" parent="L1R1iuNIGhqfOI-RQ1aq-3" vertex="1">
          <mxGeometry y="26" width="290" height="26" as="geometry" />
        </mxCell>
        <mxCell id="L1R1iuNIGhqfOI-RQ1aq-9" value="+ retrieveAuthorFromDB(unsigned): AuthorObject" style="text;strokeColor=#9673a6;fillColor=#e1d5e7;align=left;verticalAlign=top;spacingLeft=4;spacingRight=4;overflow=hidden;rotatable=0;points=[[0,0.5],[1,0.5]];portConstraint=eastwest;whiteSpace=wrap;html=1;" parent="L1R1iuNIGhqfOI-RQ1aq-3" vertex="1">
          <mxGeometry y="52" width="290" height="26" as="geometry" />
        </mxCell>
        <mxCell id="L1R1iuNIGhqfOI-RQ1aq-8" value="+ retrieveAlbumFromDB(unsigned): AlbumObject" style="text;strokeColor=#9673a6;fillColor=#e1d5e7;align=left;verticalAlign=top;spacingLeft=4;spacingRight=4;overflow=hidden;rotatable=0;points=[[0,0.5],[1,0.5]];portConstraint=eastwest;whiteSpace=wrap;html=1;" parent="L1R1iuNIGhqfOI-RQ1aq-3" vertex="1">
          <mxGeometry y="78" width="290" height="26" as="geometry" />
        </mxCell>
        <mxCell id="L1R1iuNIGhqfOI-RQ1aq-11" value="+ retrieveSongFromDB(unsigned): SongObject" style="text;strokeColor=#9673a6;fillColor=#e1d5e7;align=left;verticalAlign=top;spacingLeft=4;spacingRight=4;overflow=hidden;rotatable=0;points=[[0,0.5],[1,0.5]];portConstraint=eastwest;whiteSpace=wrap;html=1;" parent="L1R1iuNIGhqfOI-RQ1aq-3" vertex="1">
          <mxGeometry y="104" width="290" height="26" as="geometry" />
        </mxCell>
        <mxCell id="L1R1iuNIGhqfOI-RQ1aq-6" value="+ retrieveUserFromDB(unsigned): UserObject" style="text;strokeColor=#9673a6;fillColor=#e1d5e7;align=left;verticalAlign=top;spacingLeft=4;spacingRight=4;overflow=hidden;rotatable=0;points=[[0,0.5],[1,0.5]];portConstraint=eastwest;whiteSpace=wrap;html=1;" parent="L1R1iuNIGhqfOI-RQ1aq-3" vertex="1">
          <mxGeometry y="130" width="290" height="26" as="geometry" />
        </mxCell>
        <mxCell id="L1R1iuNIGhqfOI-RQ1aq-12" value="ControllerSignalsBase" style="swimlane;fontStyle=1;align=center;verticalAlign=top;childLayout=stackLayout;horizontal=1;startSize=26;horizontalStack=0;resizeParent=1;resizeParentMax=0;resizeLast=0;collapsible=1;marginBottom=0;whiteSpace=wrap;html=1;fillColor=#e1d5e7;strokeColor=#9673a6;" parent="1" vertex="1">
          <mxGeometry x="-1190" y="210" width="330" height="156" as="geometry" />
        </mxCell>
        <mxCell id="L1R1iuNIGhqfOI-RQ1aq-16" value="+ handleUserSignal(userSignal): status" style="text;strokeColor=#9673a6;fillColor=#e1d5e7;align=left;verticalAlign=top;spacingLeft=4;spacingRight=4;overflow=hidden;rotatable=0;points=[[0,0.5],[1,0.5]];portConstraint=eastwest;whiteSpace=wrap;html=1;" parent="L1R1iuNIGhqfOI-RQ1aq-12" vertex="1">
          <mxGeometry y="26" width="330" height="26" as="geometry" />
        </mxCell>
        <mxCell id="L1R1iuNIGhqfOI-RQ1aq-72" value="+ handlePlaylistSignal(playlistSignal): status" style="text;strokeColor=#9673a6;fillColor=#e1d5e7;align=left;verticalAlign=top;spacingLeft=4;spacingRight=4;overflow=hidden;rotatable=0;points=[[0,0.5],[1,0.5]];portConstraint=eastwest;whiteSpace=wrap;html=1;" parent="L1R1iuNIGhqfOI-RQ1aq-12" vertex="1">
          <mxGeometry y="52" width="330" height="26" as="geometry" />
        </mxCell>
        <mxCell id="L1R1iuNIGhqfOI-RQ1aq-73" value="+ handleAlbumSignal(albumSignal): status" style="text;strokeColor=#9673a6;fillColor=#e1d5e7;align=left;verticalAlign=top;spacingLeft=4;spacingRight=4;overflow=hidden;rotatable=0;points=[[0,0.5],[1,0.5]];portConstraint=eastwest;whiteSpace=wrap;html=1;" parent="L1R1iuNIGhqfOI-RQ1aq-12" vertex="1">
          <mxGeometry y="78" width="330" height="26" as="geometry" />
        </mxCell>
        <mxCell id="ON9sRsbOgQvFdrC9vQ9z-1" value="+ handleSongSIgnal(SongSignal): status" style="text;strokeColor=#9673a6;fillColor=#e1d5e7;align=left;verticalAlign=top;spacingLeft=4;spacingRight=4;overflow=hidden;rotatable=0;points=[[0,0.5],[1,0.5]];portConstraint=eastwest;whiteSpace=wrap;html=1;" vertex="1" parent="L1R1iuNIGhqfOI-RQ1aq-12">
          <mxGeometry y="104" width="330" height="26" as="geometry" />
        </mxCell>
        <mxCell id="L1R1iuNIGhqfOI-RQ1aq-15" value="+ handleAuthorSignals(authorSignal): status" style="text;strokeColor=#9673a6;fillColor=#e1d5e7;align=left;verticalAlign=top;spacingLeft=4;spacingRight=4;overflow=hidden;rotatable=0;points=[[0,0.5],[1,0.5]];portConstraint=eastwest;whiteSpace=wrap;html=1;" parent="L1R1iuNIGhqfOI-RQ1aq-12" vertex="1">
          <mxGeometry y="130" width="330" height="26" as="geometry" />
        </mxCell>
        <mxCell id="L1R1iuNIGhqfOI-RQ1aq-19" value="StorageInterface" style="swimlane;fontStyle=0;childLayout=stackLayout;horizontal=1;startSize=26;fillColor=#dae8fc;horizontalStack=0;resizeParent=1;resizeParentMax=0;resizeLast=0;collapsible=1;marginBottom=0;whiteSpace=wrap;html=1;strokeColor=#6c8ebf;" parent="1" vertex="1">
          <mxGeometry x="-2860" y="322" width="200" height="78" as="geometry" />
        </mxCell>
        <mxCell id="L1R1iuNIGhqfOI-RQ1aq-20" value="+ requestFile(unsigned): file" style="text;strokeColor=#6c8ebf;fillColor=#dae8fc;align=left;verticalAlign=top;spacingLeft=4;spacingRight=4;overflow=hidden;rotatable=0;points=[[0,0.5],[1,0.5]];portConstraint=eastwest;whiteSpace=wrap;html=1;" parent="L1R1iuNIGhqfOI-RQ1aq-19" vertex="1">
          <mxGeometry y="26" width="200" height="26" as="geometry" />
        </mxCell>
        <mxCell id="L1R1iuNIGhqfOI-RQ1aq-21" value="+ requestSaveFile(file): status" style="text;strokeColor=#6c8ebf;fillColor=#dae8fc;align=left;verticalAlign=top;spacingLeft=4;spacingRight=4;overflow=hidden;rotatable=0;points=[[0,0.5],[1,0.5]];portConstraint=eastwest;whiteSpace=wrap;html=1;" parent="L1R1iuNIGhqfOI-RQ1aq-19" vertex="1">
          <mxGeometry y="52" width="200" height="26" as="geometry" />
        </mxCell>
        <mxCell id="L1R1iuNIGhqfOI-RQ1aq-25" value="DatabaseClientInterface" style="swimlane;fontStyle=0;childLayout=stackLayout;horizontal=1;startSize=26;fillColor=#dae8fc;horizontalStack=0;resizeParent=1;resizeParentMax=0;resizeLast=0;collapsible=1;marginBottom=0;whiteSpace=wrap;html=1;strokeColor=#6c8ebf;" parent="1" vertex="1">
          <mxGeometry x="-2565" y="320" width="300" height="156" as="geometry" />
        </mxCell>
        <mxCell id="L1R1iuNIGhqfOI-RQ1aq-26" value="+ getUserRecord(unsigned): UserObject" style="text;strokeColor=#6c8ebf;fillColor=#dae8fc;align=left;verticalAlign=top;spacingLeft=4;spacingRight=4;overflow=hidden;rotatable=0;points=[[0,0.5],[1,0.5]];portConstraint=eastwest;whiteSpace=wrap;html=1;" parent="L1R1iuNIGhqfOI-RQ1aq-25" vertex="1">
          <mxGeometry y="26" width="300" height="26" as="geometry" />
        </mxCell>
        <mxCell id="L1R1iuNIGhqfOI-RQ1aq-27" value="+ getSongObject(unsigned): SongObject" style="text;strokeColor=#6c8ebf;fillColor=#dae8fc;align=left;verticalAlign=top;spacingLeft=4;spacingRight=4;overflow=hidden;rotatable=0;points=[[0,0.5],[1,0.5]];portConstraint=eastwest;whiteSpace=wrap;html=1;" parent="L1R1iuNIGhqfOI-RQ1aq-25" vertex="1">
          <mxGeometry y="52" width="300" height="26" as="geometry" />
        </mxCell>
        <mxCell id="L1R1iuNIGhqfOI-RQ1aq-28" value="+ getPlaylistObject(unsigned): PlaylistObject" style="text;strokeColor=#6c8ebf;fillColor=#dae8fc;align=left;verticalAlign=top;spacingLeft=4;spacingRight=4;overflow=hidden;rotatable=0;points=[[0,0.5],[1,0.5]];portConstraint=eastwest;whiteSpace=wrap;html=1;" parent="L1R1iuNIGhqfOI-RQ1aq-25" vertex="1">
          <mxGeometry y="78" width="300" height="26" as="geometry" />
        </mxCell>
        <mxCell id="L1R1iuNIGhqfOI-RQ1aq-30" value="+ getAlbumObject(unsignef): AlbumObject" style="text;strokeColor=#6c8ebf;fillColor=#dae8fc;align=left;verticalAlign=top;spacingLeft=4;spacingRight=4;overflow=hidden;rotatable=0;points=[[0,0.5],[1,0.5]];portConstraint=eastwest;whiteSpace=wrap;html=1;" parent="L1R1iuNIGhqfOI-RQ1aq-25" vertex="1">
          <mxGeometry y="104" width="300" height="26" as="geometry" />
        </mxCell>
        <mxCell id="L1R1iuNIGhqfOI-RQ1aq-29" value="+ getAuthorObject(unsigned): AuthorObject" style="text;strokeColor=#6c8ebf;fillColor=#dae8fc;align=left;verticalAlign=top;spacingLeft=4;spacingRight=4;overflow=hidden;rotatable=0;points=[[0,0.5],[1,0.5]];portConstraint=eastwest;whiteSpace=wrap;html=1;" parent="L1R1iuNIGhqfOI-RQ1aq-25" vertex="1">
          <mxGeometry y="130" width="300" height="26" as="geometry" />
        </mxCell>
        <mxCell id="L1R1iuNIGhqfOI-RQ1aq-34" value="QueueInterface" style="swimlane;fontStyle=1;align=center;verticalAlign=top;childLayout=stackLayout;horizontal=1;startSize=26;horizontalStack=0;resizeParent=1;resizeParentMax=0;resizeLast=0;collapsible=1;marginBottom=0;whiteSpace=wrap;html=1;fillColor=#f8cecc;strokeColor=#b85450;" parent="1" vertex="1">
          <mxGeometry x="-1730" y="-250" width="340" height="78" as="geometry" />
        </mxCell>
        <mxCell id="L1R1iuNIGhqfOI-RQ1aq-47" value="+ requestSetQueue(SongObject): status" style="text;strokeColor=#b85450;fillColor=#f8cecc;align=left;verticalAlign=top;spacingLeft=4;spacingRight=4;overflow=hidden;rotatable=0;points=[[0,0.5],[1,0.5]];portConstraint=eastwest;whiteSpace=wrap;html=1;" parent="L1R1iuNIGhqfOI-RQ1aq-34" vertex="1">
          <mxGeometry y="26" width="340" height="26" as="geometry" />
        </mxCell>
        <mxCell id="L1R1iuNIGhqfOI-RQ1aq-37" value="+ requestSetQueueStatus(QueueFlagsEnum): status" style="text;strokeColor=#b85450;fillColor=#f8cecc;align=left;verticalAlign=top;spacingLeft=4;spacingRight=4;overflow=hidden;rotatable=0;points=[[0,0.5],[1,0.5]];portConstraint=eastwest;whiteSpace=wrap;html=1;" parent="L1R1iuNIGhqfOI-RQ1aq-34" vertex="1">
          <mxGeometry y="52" width="340" height="26" as="geometry" />
        </mxCell>
        <mxCell id="L1R1iuNIGhqfOI-RQ1aq-38" value="SongInterface" style="swimlane;fontStyle=1;align=center;verticalAlign=top;childLayout=stackLayout;horizontal=1;startSize=26;horizontalStack=0;resizeParent=1;resizeParentMax=0;resizeLast=0;collapsible=1;marginBottom=0;whiteSpace=wrap;html=1;fillColor=#f8cecc;strokeColor=#b85450;" parent="1" vertex="1">
          <mxGeometry x="-1060" y="-250" width="320" height="78" as="geometry" />
        </mxCell>
        <mxCell id="L1R1iuNIGhqfOI-RQ1aq-39" value="+ requestSetSong(SongObject): status" style="text;strokeColor=#b85450;fillColor=#f8cecc;align=left;verticalAlign=top;spacingLeft=4;spacingRight=4;overflow=hidden;rotatable=0;points=[[0,0.5],[1,0.5]];portConstraint=eastwest;whiteSpace=wrap;html=1;" parent="L1R1iuNIGhqfOI-RQ1aq-38" vertex="1">
          <mxGeometry y="26" width="320" height="26" as="geometry" />
        </mxCell>
        <mxCell id="L1R1iuNIGhqfOI-RQ1aq-50" value="+ requestSetSongState(SongFlagsEnum): status" style="text;strokeColor=#b85450;fillColor=#f8cecc;align=left;verticalAlign=top;spacingLeft=4;spacingRight=4;overflow=hidden;rotatable=0;points=[[0,0.5],[1,0.5]];portConstraint=eastwest;whiteSpace=wrap;html=1;" parent="L1R1iuNIGhqfOI-RQ1aq-38" vertex="1">
          <mxGeometry y="52" width="320" height="26" as="geometry" />
        </mxCell>
        <mxCell id="L1R1iuNIGhqfOI-RQ1aq-54" style="edgeStyle=orthogonalEdgeStyle;rounded=0;orthogonalLoop=1;jettySize=auto;html=1;endArrow=block;endFill=0;fillColor=#f8cecc;strokeColor=#b85450;" parent="1" source="L1R1iuNIGhqfOI-RQ1aq-42" target="L1R1iuNIGhqfOI-RQ1aq-34" edge="1">
          <mxGeometry relative="1" as="geometry" />
        </mxCell>
        <mxCell id="L1R1iuNIGhqfOI-RQ1aq-55" style="edgeStyle=orthogonalEdgeStyle;rounded=0;orthogonalLoop=1;jettySize=auto;html=1;endArrow=block;endFill=0;fillColor=#f8cecc;strokeColor=#b85450;" parent="1" source="L1R1iuNIGhqfOI-RQ1aq-42" target="L1R1iuNIGhqfOI-RQ1aq-38" edge="1">
          <mxGeometry relative="1" as="geometry" />
        </mxCell>
        <mxCell id="L1R1iuNIGhqfOI-RQ1aq-42" value="PlaybackInterface" style="swimlane;fontStyle=1;align=center;verticalAlign=top;childLayout=stackLayout;horizontal=1;startSize=26;horizontalStack=0;resizeParent=1;resizeParentMax=0;resizeLast=0;collapsible=1;marginBottom=0;whiteSpace=wrap;html=1;fillColor=#f8cecc;strokeColor=#b85450;" parent="1" vertex="1">
          <mxGeometry x="-1342.5" y="-100" width="185" height="34" as="geometry" />
        </mxCell>
        <mxCell id="L1R1iuNIGhqfOI-RQ1aq-56" value="AuthorizationInterface" style="swimlane;fontStyle=1;align=center;verticalAlign=top;childLayout=stackLayout;horizontal=1;startSize=26;horizontalStack=0;resizeParent=1;resizeParentMax=0;resizeLast=0;collapsible=1;marginBottom=0;whiteSpace=wrap;html=1;fillColor=#fff2cc;strokeColor=#d6b656;" parent="1" vertex="1">
          <mxGeometry x="-480" y="485" width="230" height="52" as="geometry" />
        </mxCell>
        <mxCell id="L1R1iuNIGhqfOI-RQ1aq-59" value="+ requestAuthorize(Token): status" style="text;strokeColor=#d6b656;fillColor=#fff2cc;align=left;verticalAlign=top;spacingLeft=4;spacingRight=4;overflow=hidden;rotatable=0;points=[[0,0.5],[1,0.5]];portConstraint=eastwest;whiteSpace=wrap;html=1;" parent="L1R1iuNIGhqfOI-RQ1aq-56" vertex="1">
          <mxGeometry y="26" width="230" height="26" as="geometry" />
        </mxCell>
        <mxCell id="L1R1iuNIGhqfOI-RQ1aq-64" value="AuthenticationInterface" style="swimlane;fontStyle=1;align=center;verticalAlign=top;childLayout=stackLayout;horizontal=1;startSize=26;horizontalStack=0;resizeParent=1;resizeParentMax=0;resizeLast=0;collapsible=1;marginBottom=0;whiteSpace=wrap;html=1;fillColor=#fff2cc;strokeColor=#d6b656;" parent="1" vertex="1">
          <mxGeometry x="-110" y="485" width="240" height="52" as="geometry" />
        </mxCell>
        <mxCell id="L1R1iuNIGhqfOI-RQ1aq-67" value="+ requestAuthenticate(Credentials): token" style="text;strokeColor=#d6b656;fillColor=#fff2cc;align=left;verticalAlign=top;spacingLeft=4;spacingRight=4;overflow=hidden;rotatable=0;points=[[0,0.5],[1,0.5]];portConstraint=eastwest;whiteSpace=wrap;html=1;" parent="L1R1iuNIGhqfOI-RQ1aq-64" vertex="1">
          <mxGeometry y="26" width="240" height="26" as="geometry" />
        </mxCell>
        <mxCell id="L1R1iuNIGhqfOI-RQ1aq-74" value="PlaylistContextInterface" style="swimlane;fontStyle=1;align=center;verticalAlign=top;childLayout=stackLayout;horizontal=1;startSize=26;horizontalStack=0;resizeParent=1;resizeParentMax=0;resizeLast=0;collapsible=1;marginBottom=0;whiteSpace=wrap;html=1;fillColor=#d5e8d4;strokeColor=#82b366;" parent="1" vertex="1">
          <mxGeometry x="-1870" y="476" width="300" height="60" as="geometry" />
        </mxCell>
        <mxCell id="L1R1iuNIGhqfOI-RQ1aq-76" value="" style="line;strokeWidth=1;fillColor=#d5e8d4;align=left;verticalAlign=middle;spacingTop=-1;spacingLeft=3;spacingRight=3;rotatable=0;labelPosition=right;points=[];portConstraint=eastwest;strokeColor=#82b366;" parent="L1R1iuNIGhqfOI-RQ1aq-74" vertex="1">
          <mxGeometry y="26" width="300" height="8" as="geometry" />
        </mxCell>
        <mxCell id="L1R1iuNIGhqfOI-RQ1aq-77" value="+ requestFillPlaylistContextData(PlaylistObject): status" style="text;strokeColor=#82b366;fillColor=#d5e8d4;align=left;verticalAlign=top;spacingLeft=4;spacingRight=4;overflow=hidden;rotatable=0;points=[[0,0.5],[1,0.5]];portConstraint=eastwest;whiteSpace=wrap;html=1;" parent="L1R1iuNIGhqfOI-RQ1aq-74" vertex="1">
          <mxGeometry y="34" width="300" height="26" as="geometry" />
        </mxCell>
        <mxCell id="L1R1iuNIGhqfOI-RQ1aq-80" value="AuthorContextInterface" style="swimlane;fontStyle=1;align=center;verticalAlign=top;childLayout=stackLayout;horizontal=1;startSize=26;horizontalStack=0;resizeParent=1;resizeParentMax=0;resizeLast=0;collapsible=1;marginBottom=0;whiteSpace=wrap;html=1;fillColor=#d5e8d4;strokeColor=#82b366;" parent="1" vertex="1">
          <mxGeometry x="-1550" y="485" width="310" height="60" as="geometry" />
        </mxCell>
        <mxCell id="L1R1iuNIGhqfOI-RQ1aq-82" value="" style="line;strokeWidth=1;fillColor=#d5e8d4;align=left;verticalAlign=middle;spacingTop=-1;spacingLeft=3;spacingRight=3;rotatable=0;labelPosition=right;points=[];portConstraint=eastwest;strokeColor=#82b366;" parent="L1R1iuNIGhqfOI-RQ1aq-80" vertex="1">
          <mxGeometry y="26" width="310" height="8" as="geometry" />
        </mxCell>
        <mxCell id="L1R1iuNIGhqfOI-RQ1aq-83" value="+ requestFillAuthorContextData(AuthorObject): status" style="text;strokeColor=#82b366;fillColor=#d5e8d4;align=left;verticalAlign=top;spacingLeft=4;spacingRight=4;overflow=hidden;rotatable=0;points=[[0,0.5],[1,0.5]];portConstraint=eastwest;whiteSpace=wrap;html=1;" parent="L1R1iuNIGhqfOI-RQ1aq-80" vertex="1">
          <mxGeometry y="34" width="310" height="26" as="geometry" />
        </mxCell>
        <mxCell id="L1R1iuNIGhqfOI-RQ1aq-86" value="PlaybackContextInterface" style="swimlane;fontStyle=1;align=center;verticalAlign=top;childLayout=stackLayout;horizontal=1;startSize=26;horizontalStack=0;resizeParent=1;resizeParentMax=0;resizeLast=0;collapsible=1;marginBottom=0;whiteSpace=wrap;html=1;fillColor=#d5e8d4;strokeColor=#82b366;" parent="1" vertex="1">
          <mxGeometry x="-1190" y="481" width="330" height="60" as="geometry" />
        </mxCell>
        <mxCell id="L1R1iuNIGhqfOI-RQ1aq-88" value="" style="line;strokeWidth=1;fillColor=#d5e8d4;align=left;verticalAlign=middle;spacingTop=-1;spacingLeft=3;spacingRight=3;rotatable=0;labelPosition=right;points=[];portConstraint=eastwest;strokeColor=#82b366;" parent="L1R1iuNIGhqfOI-RQ1aq-86" vertex="1">
          <mxGeometry y="26" width="330" height="8" as="geometry" />
        </mxCell>
        <mxCell id="L1R1iuNIGhqfOI-RQ1aq-89" value="+ requestFillPlaybackContextData(PlaylistObject): status" style="text;strokeColor=#82b366;fillColor=#d5e8d4;align=left;verticalAlign=top;spacingLeft=4;spacingRight=4;overflow=hidden;rotatable=0;points=[[0,0.5],[1,0.5]];portConstraint=eastwest;whiteSpace=wrap;html=1;" parent="L1R1iuNIGhqfOI-RQ1aq-86" vertex="1">
          <mxGeometry y="34" width="330" height="26" as="geometry" />
        </mxCell>
        <mxCell id="L1R1iuNIGhqfOI-RQ1aq-92" value="UserLibraryContextInterface" style="swimlane;fontStyle=1;align=center;verticalAlign=top;childLayout=stackLayout;horizontal=1;startSize=26;horizontalStack=0;resizeParent=1;resizeParentMax=0;resizeLast=0;collapsible=1;marginBottom=0;whiteSpace=wrap;html=1;fillColor=#d5e8d4;strokeColor=#82b366;" parent="1" vertex="1">
          <mxGeometry x="-840" y="481" width="330" height="60" as="geometry" />
        </mxCell>
        <mxCell id="L1R1iuNIGhqfOI-RQ1aq-94" value="" style="line;strokeWidth=1;fillColor=#d5e8d4;align=left;verticalAlign=middle;spacingTop=-1;spacingLeft=3;spacingRight=3;rotatable=0;labelPosition=right;points=[];portConstraint=eastwest;strokeColor=#82b366;" parent="L1R1iuNIGhqfOI-RQ1aq-92" vertex="1">
          <mxGeometry y="26" width="330" height="8" as="geometry" />
        </mxCell>
        <mxCell id="L1R1iuNIGhqfOI-RQ1aq-95" value="+ requestFillUserLibraryContext(UserObject): status" style="text;strokeColor=#82b366;fillColor=#d5e8d4;align=left;verticalAlign=top;spacingLeft=4;spacingRight=4;overflow=hidden;rotatable=0;points=[[0,0.5],[1,0.5]];portConstraint=eastwest;whiteSpace=wrap;html=1;" parent="L1R1iuNIGhqfOI-RQ1aq-92" vertex="1">
          <mxGeometry y="34" width="330" height="26" as="geometry" />
        </mxCell>
      </root>
    </mxGraphModel>
  </diagram>
</mxfile>
